<svg xmlns="http://www.w3.org/2000/svg" xmlns:xlink="http://www.w3.org/1999/xlink" width="150" zoomAndPan="magnify" viewBox="0 0 112.5 112.499997" height="150" preserveAspectRatio="xMidYMid meet" version="1.0"><defs><clipPath id="a9f1ef2d1e"><path d="M 0 0 L 112.003906 0 L 112.003906 112.003906 L 0 112.003906 Z M 0 0 " clip-rule="nonzero"/></clipPath><clipPath id="7b5ef03792"><path d="M 56 0 C 25.074219 0 0 25.074219 0 56 C 0 86.929688 25.074219 112.003906 56 112.003906 C 86.929688 112.003906 112.003906 86.929688 112.003906 56 C 112.003906 25.074219 86.929688 0 56 0 Z M 56 0 " clip-rule="nonzero"/></clipPath></defs><g clip-path="url(#a9f1ef2d1e)"><g clip-path="url(#7b5ef03792)"><path fill="#000000" d="M 0 0 L 112.003906 0 L 112.003906 112.003906 L 0 112.003906 Z M 0 0 " fill-opacity="1" fill-rule="nonzero"/></g></g><path fill="#ffffff" d="M 36.875 80.546875 C 51.367188 79.222656 65.734375 73.5625 73.519531 66.148438 L 73.582031 66.085938 L 73.734375 65.46875 C 75.859375 57.132812 74.472656 44.546875 72.472656 41.960938 C 72.167969 41.5625 71.859375 41.378906 71.488281 41.378906 C 70.597656 41.378906 69.828125 42.699219 69.152344 45.40625 C 65.859375 58.300781 49.183594 69.808594 35.089844 75.039062 C 23.121094 79.46875 20.75 84.023438 20.289062 85.777344 L 19.980469 86.976562 L 20.78125 86.054688 C 22.164062 84.394531 26.136719 81.53125 36.875 80.546875 M 40.75 10.636719 C 19.519531 17.5 6.933594 38.238281 8.933594 60.300781 C 7.859375 33.347656 28.074219 11.652344 54.964844 11.652344 C 95.121094 11.652344 114.167969 60.148438 86.503906 87.933594 C 84.351562 89.007812 82.257812 89.5625 80.445312 89.5625 C 78.722656 89.5625 77.429688 89.007812 76.84375 87.960938 C 76.074219 86.671875 76.414062 84.640625 77.734375 82.269531 C 81.828125 75.007812 84.167969 61.777344 82.535156 58.976562 C 82.257812 58.484375 81.890625 58.394531 81.644531 58.394531 C 80.8125 58.394531 79.828125 59.46875 78.566406 61.683594 C 72.011719 73.253906 52.90625 79.992188 37.921875 81.378906 C 21.949219 82.824219 20.566406 88.363281 20.503906 88.609375 L 20.441406 88.824219 L 20.566406 88.949219 C 25.121094 93.070312 30.351562 96.363281 35.980469 98.671875 C 62.011719 111.253906 93.828125 97.195312 101.273438 68.238281 C 110.597656 31.871094 75.890625 -0.746094 40.75 10.636719 Z M 40.75 10.636719 " fill-opacity="1" fill-rule="nonzero"/></svg>